<svg xmlns="http://www.w3.org/2000/svg" width="15.409" height="19" viewBox="0 0 15.409 19"><path d="M9.074-6.959h1.159v9.5H9.074Zm2.375,0h1.159v9.5H11.449Zm2.375,0h1.159v9.5H13.824Zm-9.5-3.534H19.733v1.159H4.324Zm10.659,0H13.824v-.579a.563.563,0,0,0-.637-.637H10.87a.563.563,0,0,0-.637.637v.579H9.074v-.579a1.787,1.787,0,0,1,.492-1.274,1.709,1.709,0,0,1,1.3-.521h2.317a1.709,1.709,0,0,1,1.3.521,1.787,1.787,0,0,1,.492,1.274Zm.579,16.625H8.495a1.831,1.831,0,0,1-1.3-.521A1.849,1.849,0,0,1,6.583,4.4l-1.1-14.25L6.7-9.971,7.742,4.279a.514.514,0,0,0,.058.232.575.575,0,0,0,.174.2,1.522,1.522,0,0,0,.232.145.645.645,0,0,0,.29.058h7.067a.694.694,0,0,0,.753-.637l1.043-14.25,1.216.116L17.474,4.4a1.849,1.849,0,0,1-.608,1.216A1.831,1.831,0,0,1,15.562,6.133Z" transform="translate(-4.324 12.867)" fill="#f46363"/></svg>