<svg id="edit_1_" data-name="edit (1)" xmlns="http://www.w3.org/2000/svg" width="25.137" height="25.002" viewBox="0 0 25.137 25.002">
  <path id="Tracé_271" data-name="Tracé 271" d="M24.415,33.112a.659.659,0,0,0-.659.658v5.846a1.978,1.978,0,0,1-1.976,1.975H3.294a1.978,1.978,0,0,1-1.976-1.975V22.46a1.978,1.978,0,0,1,1.976-1.975H9.144a.658.658,0,1,0,0-1.317H3.294A3.3,3.3,0,0,0,0,22.46V39.617a3.3,3.3,0,0,0,3.294,3.292H21.779a3.3,3.3,0,0,0,3.294-3.292V33.771A.659.659,0,0,0,24.415,33.112Zm0,0" transform="translate(0 -17.907)" fill="#17e6c8"/>
  <path id="Tracé_272" data-name="Tracé 272" d="M156.367,42.073l9.745-9.745,3.143,3.143-9.745,9.745Zm0,0" transform="translate(-146.258 -30.188)" fill="#17e6c8"/>
  <path id="Tracé_273" data-name="Tracé 273" d="M132.543,200.692l3.473-.962-2.511-2.511Zm0,0" transform="translate(-123.829 -184.27)" fill="#17e6c8"/>
  <path id="Tracé_274" data-name="Tracé 274" d="M319.595.756a1.671,1.671,0,0,0-2.36,0l-.708.708,3.143,3.143.708-.708a1.67,1.67,0,0,0,0-2.36Zm0,0" transform="translate(-295.729 -0.269)" fill="#17e6c8"/>
</svg>
