<svg xmlns="http://www.w3.org/2000/svg" width="19.065" height="19" viewBox="0 0 19.065 19"><path d="M3.445,7.574l1.7-6.66L15.067-9.01,20.03-4.048,10.105,5.877ZM6.318,1.633,5.339,5.681,9.387,4.7,18.2-4.048,15.067-7.182Zm3.918,3.526A5.893,5.893,0,0,0,5.861.784L5.535,2.09A4.3,4.3,0,0,1,7.722,3.3,4.3,4.3,0,0,1,8.93,5.485Zm-2.285-3,.914.914,8.684-8.684-.914-.979ZM6.318,6.138A1.758,1.758,0,0,0,4.882,4.7L4.425,6.595ZM20.421-4.5l-4.9-4.9,1.959-2.024.326.065a5.335,5.335,0,0,1,3.1,1.534,5.335,5.335,0,0,1,1.534,3.1l.065.326ZM17.353-9.4l3.069,3.069.653-.653a4.039,4.039,0,0,0-1.11-1.959,4.039,4.039,0,0,0-1.959-1.11Z" transform="translate(-3.445 11.426)" fill="#2cd889"/></svg>