<svg xmlns="http://www.w3.org/2000/svg" width="14.739" height="15" viewBox="0 0 14.739 15"><path d="M10.109,3.7V5.3a.258.258,0,0,1-.268.268H7.7A.258.258,0,0,1,7.43,5.3V3.7A.258.258,0,0,1,7.7,3.429H9.841a.258.258,0,0,1,.268.268ZM6.091,2.625a.315.315,0,0,1-.084.2L3.337,5.5a.279.279,0,0,1-.193.075A.3.3,0,0,1,2.952,5.5L.274,2.818a.255.255,0,0,1-.059-.293.248.248,0,0,1,.251-.167H2.073V-9.161a.261.261,0,0,1,.075-.193.261.261,0,0,1,.193-.075H3.948a.261.261,0,0,1,.193.075.261.261,0,0,1,.075.193V2.357H5.823a.258.258,0,0,1,.268.268ZM11.716-.589V1.018a.258.258,0,0,1-.268.268H7.7a.258.258,0,0,1-.268-.268V-.589a.261.261,0,0,1,.075-.193A.261.261,0,0,1,7.7-.857h3.75a.261.261,0,0,1,.193.075A.261.261,0,0,1,11.716-.589Zm1.607-4.286v1.607a.261.261,0,0,1-.075.193A.261.261,0,0,1,13.055-3H7.7a.261.261,0,0,1-.193-.075.261.261,0,0,1-.075-.193V-4.875a.261.261,0,0,1,.075-.193A.261.261,0,0,1,7.7-5.143h5.357a.261.261,0,0,1,.193.075A.261.261,0,0,1,13.323-4.875ZM14.93-9.161v1.607a.261.261,0,0,1-.075.193.261.261,0,0,1-.193.075H7.7a.261.261,0,0,1-.193-.075.261.261,0,0,1-.075-.193V-9.161a.261.261,0,0,1,.075-.193A.261.261,0,0,1,7.7-9.429h6.964a.261.261,0,0,1,.193.075A.261.261,0,0,1,14.93-9.161Z" transform="translate(-0.192 9.429)" fill="#cbd1d9"/></svg>