<svg xmlns="http://www.w3.org/2000/svg" width="23.3" height="19.3" viewBox="0 0 23.3 19.3">
  <g id="Groupe_17507" data-name="Groupe 17507" transform="translate(-39.35 -225.35)">
    <g id="chart-bar-32" transform="translate(62 240) rotate(90)">
      <path id="Union_8" data-name="Union 8" d="M3,0H1C.4,0,0,.55,0,1.375v19.25C0,21.45.4,22,1,22H3c.6,0,1-.55,1-1.375V1.375C4,.55,3.6,0,3,0Z" transform="translate(0)" fill="none" stroke="#a2a2a2" stroke-width="1.3"/>
    </g>
    <g id="chart-bar-32-2" data-name="chart-bar-32" transform="translate(62 233) rotate(90)">
      <path id="Union_8-2" data-name="Union 8" d="M3,0H1C.4,0,0,.55,0,1.375v19.25C0,21.45.4,22,1,22H3c.6,0,1-.55,1-1.375V1.375C4,.55,3.6,0,3,0Z" transform="translate(0)" fill="none" stroke="#a2a2a2" stroke-width="1.3"/>
    </g>
    <g id="chart-bar-32-3" data-name="chart-bar-32" transform="translate(62 226) rotate(90)">
      <path id="Union_8-3" data-name="Union 8" d="M3,0H1C.4,0,0,.55,0,1.375v19.25C0,21.45.4,22,1,22H3c.6,0,1-.55,1-1.375V1.375C4,.55,3.6,0,3,0Z" transform="translate(0)" fill="none" stroke="#a2a2a2" stroke-width="1.3"/>
    </g>
  </g>
</svg>
