<svg xmlns="http://www.w3.org/2000/svg" width="20.967" height="18" viewBox="0 0 20.967 18">
  <g id="folder" transform="translate(0 -34.05)">
    <path id="Tracé_27" data-name="Tracé 27" d="M17.6,36.83H12.632a2.193,2.193,0,0,1-2.192-2.192.586.586,0,0,0-.588-.588H3.368A3.373,3.373,0,0,0,0,37.418V48.682A3.373,3.373,0,0,0,3.368,52.05H17.6a3.373,3.373,0,0,0,3.368-3.368V40.194A3.37,3.37,0,0,0,17.6,36.83Zm2.192,11.847A2.193,2.193,0,0,1,17.6,50.869H3.368a2.193,2.193,0,0,1-2.192-2.192V37.418a2.193,2.193,0,0,1,2.192-2.192H9.316a3.374,3.374,0,0,0,3.316,2.78H17.6A2.193,2.193,0,0,1,19.791,40.2v8.479Z" fill="#a2a2a2"/>
  </g>
</svg>
