<svg xmlns="http://www.w3.org/2000/svg" width="181.201" height="27.009" viewBox="0 0 181.201 27.009"><g transform="translate(-29.9 -134.495)"><g transform="translate(133.49 145.471)"><path d="M287.782,63.613h-3.95a1.637,1.637,0,0,1-1.222-.384,1.722,1.722,0,0,1-.366-1.222V52.29a1.687,1.687,0,0,1,.375-1.229,1.663,1.663,0,0,1,1.213-.375h4.189a9.812,9.812,0,0,1,1.6.115,3.4,3.4,0,0,1,1.216.441,3.189,3.189,0,0,1,.811.691,3.061,3.061,0,0,1,.724,2,2.974,2.974,0,0,1-1.94,2.839,3.155,3.155,0,0,1,2.548,3.157,3.544,3.544,0,0,1-.555,1.953,3.336,3.336,0,0,1-1.5,1.284,5.359,5.359,0,0,1-1.358.348A13.933,13.933,0,0,1,287.782,63.613Zm-2.919-10.962v3.342h2.4a4.845,4.845,0,0,0,1.512-.184,1.444,1.444,0,0,0,.815-.706,1.593,1.593,0,0,0,.221-.829,1.285,1.285,0,0,0-.7-1.3,5.3,5.3,0,0,0-2.125-.323Zm2.726,5.221h-2.726v3.775h2.814q2.655,0,2.655-1.913a1.56,1.56,0,0,0-.689-1.42A3.847,3.847,0,0,0,287.589,57.872Z" transform="translate(-282.244 -50.57)" fill="#17e6c8"/><path d="M298.465,61.72v-.31a5.322,5.322,0,0,1-.908.917,3.345,3.345,0,0,1-1.041.552,4.229,4.229,0,0,1-1.287.181,3.312,3.312,0,0,1-1.565-.362,2.641,2.641,0,0,1-1.072-1,4.414,4.414,0,0,1-.449-2.2v-4.77a1.556,1.556,0,0,1,.326-1.081,1.114,1.114,0,0,1,.863-.356,1.145,1.145,0,0,1,.882.361,1.534,1.534,0,0,1,.335,1.076V58.58a5.932,5.932,0,0,0,.141,1.406,1.7,1.7,0,0,0,.507.891,1.452,1.452,0,0,0,.992.321,2.017,2.017,0,0,0,1.147-.361,2.109,2.109,0,0,0,.784-.943,7.573,7.573,0,0,0,.2-2.241V54.727a1.534,1.534,0,0,1,.334-1.076,1.137,1.137,0,0,1,.873-.361,1.115,1.115,0,0,1,.864.356,1.563,1.563,0,0,1,.326,1.081V61.7a1.487,1.487,0,0,1-.313,1.032,1.037,1.037,0,0,1-.806.343,1.053,1.053,0,0,1-.817-.356A1.447,1.447,0,0,1,298.465,61.72Z" transform="translate(-279.373 -49.815)" fill="#17e6c8"/><path d="M308.517,59.93a2.792,2.792,0,0,1-1.918,2.783,6.421,6.421,0,0,1-2.305.365,5.631,5.631,0,0,1-2.223-.4,3.25,3.25,0,0,1-1.367-.992,2,2,0,0,1-.44-1.195.924.924,0,0,1,.281-.68.969.969,0,0,1,.715-.283.832.832,0,0,1,.582.186,2.039,2.039,0,0,1,.388.52,2.625,2.625,0,0,0,.886.961,2.674,2.674,0,0,0,1.406.317,2.036,2.036,0,0,0,1.187-.321.906.906,0,0,0,.463-.737,1,1,0,0,0-.481-.926,5.921,5.921,0,0,0-1.583-.555,13.167,13.167,0,0,1-2.024-.649,3.32,3.32,0,0,1-1.247-.9,2.046,2.046,0,0,1-.467-1.366A2.415,2.415,0,0,1,300.8,54.7a2.963,2.963,0,0,1,1.273-1.027,4.891,4.891,0,0,1,2.033-.383,6.692,6.692,0,0,1,1.68.193,4.182,4.182,0,0,1,1.244.52,2.562,2.562,0,0,1,.759.724,1.421,1.421,0,0,1,.261.775.9.9,0,0,1-.279.68,1.1,1.1,0,0,1-.788.264.968.968,0,0,1-.631-.212,4.327,4.327,0,0,1-.6-.635,2.144,2.144,0,0,0-.644-.565,2.032,2.032,0,0,0-1-.212,1.975,1.975,0,0,0-1.085.277.813.813,0,0,0-.432.693.751.751,0,0,0,.317.622,2.663,2.663,0,0,0,.857.4q.536.159,1.481.388a7.867,7.867,0,0,1,1.829.653,3.032,3.032,0,0,1,1.076.894A1.988,1.988,0,0,1,308.517,59.93Z" transform="translate(-277.018 -49.815)" fill="#17e6c8"/><path d="M309.459,52.95a1.269,1.269,0,0,1-.86-.308,1.2,1.2,0,0,1,.009-1.714,1.23,1.23,0,0,1,.851-.332,1.262,1.262,0,0,1,.828.3,1.065,1.065,0,0,1,.361.872,1.1,1.1,0,0,1-.352.869A1.223,1.223,0,0,1,309.459,52.95Zm1.189,2.487V62.4a1.55,1.55,0,0,1-.343,1.093,1.139,1.139,0,0,1-.873.37,1.085,1.085,0,0,1-.859-.379,1.6,1.6,0,0,1-.332-1.084V55.508a1.546,1.546,0,0,1,.332-1.076,1.108,1.108,0,0,1,.859-.361,1.154,1.154,0,0,1,.873.361A1.4,1.4,0,0,1,310.648,55.437Z" transform="translate(-274.705 -50.596)" fill="#17e6c8"/><path d="M314.237,54.621v.29a4.207,4.207,0,0,1,1.389-1.229,3.7,3.7,0,0,1,1.732-.392,3.445,3.445,0,0,1,1.7.414,2.637,2.637,0,0,1,1.12,1.173,2.782,2.782,0,0,1,.308.952,9.755,9.755,0,0,1,.071,1.305v4.48a1.592,1.592,0,0,1-.332,1.093,1.094,1.094,0,0,1-.859.37,1.112,1.112,0,0,1-.873-.379,1.584,1.584,0,0,1-.335-1.084V57.6a4,4,0,0,0-.33-1.82,1.347,1.347,0,0,0-1.318-.631,1.954,1.954,0,0,0-1.173.383,2.22,2.22,0,0,0-.777,1.054,7.567,7.567,0,0,0-.175,2.011v3.016a1.561,1.561,0,0,1-.34,1.1,1.141,1.141,0,0,1-.877.365,1.092,1.092,0,0,1-.855-.379,1.584,1.584,0,0,1-.335-1.084V54.656a1.513,1.513,0,0,1,.3-1.027,1.036,1.036,0,0,1,.82-.339,1.1,1.1,0,0,1,.573.15,1.079,1.079,0,0,1,.41.449A1.6,1.6,0,0,1,314.237,54.621Z" transform="translate(-273.62 -49.815)" fill="#17e6c8"/><path d="M327.312,58.779H322.6a3.2,3.2,0,0,0,.33,1.446,2.213,2.213,0,0,0,2.033,1.26,2.913,2.913,0,0,0,.79-.1,2.587,2.587,0,0,0,.691-.319,5.206,5.206,0,0,0,.618-.462q.282-.248.731-.671a.792.792,0,0,1,.529-.159.868.868,0,0,1,.6.2.724.724,0,0,1,.23.574,1.571,1.571,0,0,1-.255.762,3.057,3.057,0,0,1-.771.837,4.365,4.365,0,0,1-1.3.666,5.582,5.582,0,0,1-1.794.264,4.8,4.8,0,0,1-3.607-1.322,4.923,4.923,0,0,1-1.287-3.589,6,6,0,0,1,.317-1.98,4.36,4.36,0,0,1,.925-1.565,4.006,4.006,0,0,1,1.5-1,5.376,5.376,0,0,1,1.975-.348,4.69,4.69,0,0,1,2.42.595,3.918,3.918,0,0,1,1.513,1.539,4.059,4.059,0,0,1,.5,1.922q0,.909-.52,1.178A3.242,3.242,0,0,1,327.312,58.779ZM322.6,57.412h4.365a2.926,2.926,0,0,0-.667-1.847,1.989,1.989,0,0,0-1.521-.613,1.924,1.924,0,0,0-1.477.622A3.1,3.1,0,0,0,322.6,57.412Z" transform="translate(-271.253 -49.819)" fill="#17e6c8"/><path d="M336.674,59.93a2.793,2.793,0,0,1-1.917,2.783,6.429,6.429,0,0,1-2.307.365,5.631,5.631,0,0,1-2.223-.4,3.245,3.245,0,0,1-1.366-.992,2,2,0,0,1-.441-1.195.925.925,0,0,1,.283-.68.966.966,0,0,1,.713-.283.835.835,0,0,1,.583.186,2.007,2.007,0,0,1,.387.52,2.647,2.647,0,0,0,.886.961,2.676,2.676,0,0,0,1.407.317,2.035,2.035,0,0,0,1.186-.321.907.907,0,0,0,.463-.737,1,1,0,0,0-.481-.926,5.921,5.921,0,0,0-1.583-.555,13.1,13.1,0,0,1-2.023-.649,3.315,3.315,0,0,1-1.249-.9,2.053,2.053,0,0,1-.467-1.366,2.415,2.415,0,0,1,.432-1.367,2.967,2.967,0,0,1,1.274-1.027,4.882,4.882,0,0,1,2.032-.383,6.71,6.71,0,0,1,1.681.193,4.189,4.189,0,0,1,1.242.52,2.563,2.563,0,0,1,.759.724,1.411,1.411,0,0,1,.261.775.9.9,0,0,1-.277.68,1.106,1.106,0,0,1-.789.264.968.968,0,0,1-.631-.212,4.26,4.26,0,0,1-.595-.635,2.16,2.16,0,0,0-.644-.565,2.04,2.04,0,0,0-1.006-.212,1.971,1.971,0,0,0-1.084.277.81.81,0,0,0-.432.693.751.751,0,0,0,.317.622,2.643,2.643,0,0,0,.855.4q.538.159,1.481.388a7.9,7.9,0,0,1,1.83.653,3.043,3.043,0,0,1,1.076.894A1.986,1.986,0,0,1,336.674,59.93Z" transform="translate(-268.852 -49.815)" fill="#17e6c8"/><path d="M344.263,59.93a2.792,2.792,0,0,1-1.918,2.783,6.421,6.421,0,0,1-2.305.365,5.63,5.63,0,0,1-2.223-.4,3.245,3.245,0,0,1-1.366-.992,2,2,0,0,1-.441-1.195.925.925,0,0,1,.283-.68.966.966,0,0,1,.713-.283.832.832,0,0,1,.582.186,2.039,2.039,0,0,1,.388.52,2.647,2.647,0,0,0,.886.961,2.676,2.676,0,0,0,1.407.317,2.035,2.035,0,0,0,1.185-.321.907.907,0,0,0,.463-.737,1,1,0,0,0-.481-.926,5.923,5.923,0,0,0-1.583-.555,13.169,13.169,0,0,1-2.024-.649,3.321,3.321,0,0,1-1.247-.9,2.046,2.046,0,0,1-.467-1.366,2.416,2.416,0,0,1,.432-1.367,2.968,2.968,0,0,1,1.275-1.027,4.882,4.882,0,0,1,2.032-.383,6.71,6.71,0,0,1,1.681.193,4.188,4.188,0,0,1,1.242.52,2.582,2.582,0,0,1,.76.724,1.419,1.419,0,0,1,.259.775.9.9,0,0,1-.277.68,1.106,1.106,0,0,1-.79.264.968.968,0,0,1-.631-.212,4.261,4.261,0,0,1-.595-.635,2.176,2.176,0,0,0-.644-.565,2.04,2.04,0,0,0-1.006-.212,1.978,1.978,0,0,0-1.085.277.813.813,0,0,0-.432.693.752.752,0,0,0,.319.622,2.642,2.642,0,0,0,.855.4q.536.159,1.481.388a7.9,7.9,0,0,1,1.831.653,3.027,3.027,0,0,1,1.075.894A1.988,1.988,0,0,1,344.263,59.93Z" transform="translate(-266.652 -49.815)" fill="#17e6c8"/></g><g transform="translate(29.9 134.495)"><path d="M210.547,79.3a1.294,1.294,0,0,1,.306,1.247c-.42,2.07-4.282,3.381-8.074,2.741,4.111.911,7.732-.538,8.312-2.669a1.52,1.52,0,0,0-.349-1.493l-.2.174" transform="translate(-200.711 -79.124)" fill="#262828" fill-rule="evenodd"/><path d="M198.758,85.375c2.9-.314,5.174-2.772,7.2-.038-3.013-1.411-4.166.364-6.612.3,1.223,1.523,3.977,2.476,5.817.8a6.244,6.244,0,0,1-4.837-.591,8.915,8.915,0,0,0,5.948-.215c-1.336,3.577-5.238,3.221-7.514-.25" transform="translate(-198.758 -81.522)" fill="#17e6c8" fill-rule="evenodd"/><g transform="translate(7.25 1.913)"><path d="M239.292,109.312c-2.467-.834-4.827-1.993-7.421-2.435-.339-.058-.688-.055-1.122-.087.73,2.148,2.352,3.576,3.624,5.226-.679.5-.935.035-1.208-.22-1.174-1.095-2.322-2.217-3.488-3.32a19.428,19.428,0,0,0-6.662-4.36c-2.48-.906-5.076-1.571-7.266-3.622-.3,3.421.636,6.411.755,9.558-1.465-1.651-3.887-13.048-3.629-16.766,1.124-.243,2.258-.8,3.349.1a.981.981,0,0,1,.376.622c-.816,2.35.856,3.659,2.227,4.975a28.775,28.775,0,0,0,7.485,4.692c.115,0,.138.25.316.122a.908.908,0,0,1-.262-.177,23.929,23.929,0,0,1-5.556-7.015,4.358,4.358,0,0,1-.71-2.679,2.943,2.943,0,0,1,1.944-1.165c.52.013.934.428,1.47.383a18.084,18.084,0,0,0,3.654-.138c.9-.113,1.226-1.15,2.093-1.32a2.681,2.681,0,0,1,1.846.814c-.359.56-.436.9.432.6a.921.921,0,0,1,.667.144c3.854,2.649,7.75,5.24,11.41,8.161a.421.421,0,0,1-.079.568c-3.764-1.3-7.718-1.973-11.412-3.49-.582-.24-1.02-.417-1.608.06a5.121,5.121,0,0,1-4.15,1.03,6.983,6.983,0,0,0,2.962,3.721,50.928,50.928,0,0,0,8.963,4.771c.586.274,1.133.633,1.7.952C239.835,109.3,239.51,109.18,239.292,109.312Z" transform="translate(-212.856 -87.14)" fill="#050606"/><path d="M217.4,89.812l-.405-.472a2.781,2.781,0,0,1-.806-1.973,3.726,3.726,0,0,0-.452-2.429c-.167-.3-1.061-.6-.884-.966.391-.082,1.539.009,1.861-.349,1.033-1.15,2.2-.833,3.386-.287,1.128.22,1.2,1.118,1.3,2.006a.734.734,0,0,1-.645.315,2.5,2.5,0,0,0-1.563.287,4.092,4.092,0,0,0-.333.3c-.429.657-.025.7.487.657.763.115,1.581-.2,2.293.3l1.441,1.131q.19.11.122.21c-.044.065-.088.1-.133.1-.347.781-1.339.528-1.8,1.125C219.96,89,218.682,89.733,217.4,89.812Z" transform="translate(-213.812 -82.844)" fill="#050606"/><path d="M236.5,90.7c.464.132,1-.074,1.413.306.5,1.111-.679,1.218-1.076,1.793-1.38.743-2.867.179-4.293.35-1.258-1.363.677-.58.718-1.069Z" transform="translate(-222.214 -86.661)" fill="#050606"/><path d="M224.566,87.781l.269.074a3.19,3.19,0,0,1,.013,1.739l-2.494,0c-1.693-.091-.513-.887-.352-1.433l0,0a5.647,5.647,0,0,1,1.786-.361Z" transform="translate(-217.032 -85.242)" fill="#070808"/><path d="M213.25,91.209a.69.69,0,0,1,1.02-.09A1.757,1.757,0,0,0,215.628,91q.211,1.135.424,2.271c-.978-.8-2.172.362-3.159-.35Z" transform="translate(-212.874 -86.773)" fill="#050606"/><path d="M246.956,93.5l.755.205.408.425c-.83.086-1.721.882-2.507-.188C245.984,93.422,246.679,94.1,246.956,93.5Z" transform="translate(-228.767 -88.018)" fill="#050606"/><path d="M241.295,93.014c.071-.77,1.228-.889,1.076-1.793l.377-.081a.417.417,0,0,0,.324.091,1.839,1.839,0,0,1,.137.29C242.5,91.933,242.34,93.038,241.295,93.014Z" transform="translate(-226.67 -86.874)" fill="#050606"/><path d="M264.263,125.682l.7-.292c.27.385,1.381.294.982.814C265.439,126.862,264.813,125.974,264.263,125.682Z" transform="translate(-237.827 -103.511)" fill="#050506"/><path d="M232.64,93.385c-.085.46-1.246.2-.718,1.069-.558.071-.7-.5-1.084-.7,0-.1.006-.205.01-.308Z" transform="translate(-221.591 -87.964)" fill="#050606"/><path d="M239.994,121.962c.2.189.372.277.412.405a.584.584,0,0,1-.313.738.305.305,0,0,1-.474-.3A3.269,3.269,0,0,1,239.994,121.962Z" transform="translate(-225.855 -101.846)" fill="#fafafa"/><path d="M272.522,111.158l.079-.568c.411.181.842.341.979.955A1.364,1.364,0,0,1,272.522,111.158Z" transform="translate(-241.839 -96.322)" fill="#050606"/><path d="M219.3,95.416c1.278-.741,2.55-1.876,3.863-.052,1.011,3.966,3.78,6.73,6.508,9.523.077.388-.027.6-.467.47-3.643-1.641-7.154-3.467-9.644-6.759C218.781,97.574,218.3,96.566,219.3,95.416Z" transform="translate(-215.712 -88.448)" fill="#fefefe"/><path d="M239.082,115.28l.467-.47a1.712,1.712,0,0,1,1.027,1.06A1.7,1.7,0,0,1,239.082,115.28Z" transform="translate(-225.595 -98.371)" fill="#fefefe"/><path d="M221.841,88.527c.172.464-.886,1.23.352,1.433-.327.391-.747.492-.967,0A1.028,1.028,0,0,1,221.841,88.527Z" transform="translate(-216.87 -85.604)" fill="#050606"/><path d="M221.089,84.932a1.133,1.133,0,0,1-1.145.351c-.064-.019-.126-.385-.066-.431C220.212,84.6,220.581,84.589,221.089,84.932Z" transform="translate(-216.256 -83.729)" fill="#fefefe"/><path d="M224.305,87.608a2.957,2.957,0,0,1-1.786.361C223.076,87.659,223.57,87.038,224.305,87.608Z" transform="translate(-217.55 -85.045)" fill="#050606"/><path d="M238.766,89.844s-4.157-3.866-6.214-2.18L229.84,88.73l-1.792.062-1.441-1.131s.544-3.392-1.535-3.859l2.561,7.933Z" transform="translate(-218.79 -83.309)" fill="#050606"/></g></g><g transform="translate(73.382 142.109)"><path d="M285.715,120.357h-2.968v4.528a2.115,2.115,0,0,1-.457,1.473,1.615,1.615,0,0,1-2.334,0,2.111,2.111,0,0,1-.448-1.457V112.579a2.013,2.013,0,0,1,.491-1.528,2.235,2.235,0,0,1,1.56-.458h4.156a10.877,10.877,0,0,1,2.836.285,4.2,4.2,0,0,1,1.7.905,4.078,4.078,0,0,1,1.086,1.549,5.452,5.452,0,0,1,.37,2.061,4.555,4.555,0,0,1-1.505,3.7A6.839,6.839,0,0,1,285.715,120.357Zm-.786-7.33h-2.183v4.887h2.183a6.572,6.572,0,0,0,1.914-.239,2.248,2.248,0,0,0,1.174-.786,2.35,2.35,0,0,0,.4-1.429,2.422,2.422,0,0,0-.621-1.723A4.141,4.141,0,0,0,284.929,113.027Z" transform="translate(-279.507 -110.321)"/><path d="M295.562,126.586h-4.887a2.017,2.017,0,0,1-1.51-.474,2.131,2.131,0,0,1-.454-1.512V112.579a2.087,2.087,0,0,1,.466-1.521,2.054,2.054,0,0,1,1.5-.464h5.181a12.157,12.157,0,0,1,1.985.142,4.235,4.235,0,0,1,1.507.545,4.016,4.016,0,0,1,1,.857,3.807,3.807,0,0,1,.664,1.145,3.861,3.861,0,0,1,.23,1.326,3.677,3.677,0,0,1-2.4,3.513q3.153,1,3.152,3.906a4.388,4.388,0,0,1-.687,2.417,4.117,4.117,0,0,1-1.854,1.586,6.606,6.606,0,0,1-1.68.432A17.346,17.346,0,0,1,295.562,126.586Zm-3.61-13.559v4.134h2.967a5.986,5.986,0,0,0,1.871-.228,1.8,1.8,0,0,0,1.01-.873,1.977,1.977,0,0,0,.272-1.027,1.592,1.592,0,0,0-.862-1.609,6.585,6.585,0,0,0-2.629-.4Zm3.371,6.459h-3.371v4.667h3.479q3.283,0,3.283-2.367a1.929,1.929,0,0,0-.85-1.756A4.766,4.766,0,0,0,295.323,119.486Z" transform="translate(-273.831 -110.321)"/><path d="M300.042,113.419a1.573,1.573,0,0,1-1.064-.382,1.485,1.485,0,0,1,.01-2.123,1.529,1.529,0,0,1,1.054-.409,1.563,1.563,0,0,1,1.025.372,1.323,1.323,0,0,1,.446,1.08,1.352,1.352,0,0,1-.436,1.073A1.5,1.5,0,0,1,300.042,113.419Zm1.471,3.077V125.1a1.919,1.919,0,0,1-.425,1.353,1.407,1.407,0,0,1-1.08.457,1.342,1.342,0,0,1-1.062-.469,1.979,1.979,0,0,1-.409-1.342v-8.52a1.906,1.906,0,0,1,.409-1.331,1.367,1.367,0,0,1,1.062-.448,1.422,1.422,0,0,1,1.08.448A1.726,1.726,0,0,1,301.513,116.5Z" transform="translate(-267.772 -110.375)"/><path d="M305.246,120.977v2.486a1.923,1.923,0,0,1-.425,1.358,1.42,1.42,0,0,1-1.081.453,1.362,1.362,0,0,1-1.057-.458,1.956,1.956,0,0,1-.414-1.353v-8.29q0-2.008,1.45-2.008a1.212,1.212,0,0,1,1.069.469,2.577,2.577,0,0,1,.361,1.385,5.173,5.173,0,0,1,1.1-1.385,2.267,2.267,0,0,1,1.5-.469,3.851,3.851,0,0,1,1.822.469,1.4,1.4,0,0,1,.883,1.245,1.188,1.188,0,0,1-.375.9,1.174,1.174,0,0,1-.813.354,3.64,3.64,0,0,1-.79-.2,3.686,3.686,0,0,0-1.107-.2,1.628,1.628,0,0,0-1.07.343,2.213,2.213,0,0,0-.643,1.02,7.178,7.178,0,0,0-.315,1.609C305.274,119.323,305.246,120.081,305.246,120.977Z" transform="translate(-265.471 -108.735)"/><path d="M316.4,125.263v-.3a7.563,7.563,0,0,1-1.182,1.119,4.489,4.489,0,0,1-1.266.655,4.769,4.769,0,0,1-1.489.223,4.384,4.384,0,0,1-1.98-.453,4.606,4.606,0,0,1-1.576-1.293,5.845,5.845,0,0,1-1.009-1.974,8.416,8.416,0,0,1-.344-2.454,6.4,6.4,0,0,1,1.364-4.352,4.531,4.531,0,0,1,3.589-1.56,4.829,4.829,0,0,1,2.171.441,6.038,6.038,0,0,1,1.722,1.358v-4.4a2.22,2.22,0,0,1,.367-1.385,1.239,1.239,0,0,1,1.041-.47,1.292,1.292,0,0,1,1.043.432,1.928,1.928,0,0,1,.365,1.271v13.136a1.818,1.818,0,0,1-.395,1.276,1.317,1.317,0,0,1-1.014.425,1.3,1.3,0,0,1-1.009-.441A1.812,1.812,0,0,1,316.4,125.263Zm-5.857-4.376a5.089,5.089,0,0,0,.377,2.063,2.862,2.862,0,0,0,1.031,1.282,2.539,2.539,0,0,0,1.427.43,2.633,2.633,0,0,0,1.436-.409A2.8,2.8,0,0,0,315.848,123a5.085,5.085,0,0,0,.386-2.111,4.953,4.953,0,0,0-.386-2.045,3.071,3.071,0,0,0-1.048-1.308,2.5,2.5,0,0,0-1.445-.453,2.429,2.429,0,0,0-1.461.464,2.964,2.964,0,0,0-1,1.329A5.27,5.27,0,0,0,310.54,120.887Z" transform="translate(-262.213 -110.425)"/></g></g></svg>