<svg xmlns="http://www.w3.org/2000/svg" width="25.5" height="26.56" viewBox="0 0 25.5 26.56"><path d="M21.25-369.19l-5.561-5.56H6.8l4.112-4.5H20.5a.751.751,0,0,0,.75-.75v-9.749H23.5a2.252,2.252,0,0,1,2.25,2.25V-377a2.253,2.253,0,0,1-2.25,2.251H21.25ZM10.2-376.249H16.31l3.44,3.439v-3.439H23.5a.751.751,0,0,0,.75-.751v-10.5a.751.751,0,0,0-.75-.75h-.75V-380a2.252,2.252,0,0,1-2.25,2.25H11.573ZM4.749-375.19v-5.56H2.5A2.252,2.252,0,0,1,.25-383v-10.5a2.252,2.252,0,0,1,2.25-2.25h15a2.252,2.252,0,0,1,2.25,2.25V-383a2.252,2.252,0,0,1-2.25,2.25H10.311ZM2.5-394.25a.751.751,0,0,0-.75.75V-383a.751.751,0,0,0,.75.75h3.75v3.439l3.44-3.439H17.5a.751.751,0,0,0,.75-.75v-10.5a.751.751,0,0,0-.75-.75Z" transform="translate(-0.25 395.75)" fill="#17e6c8"/></svg>