<svg id="Groupe_16989" data-name="Groupe 16989" xmlns="http://www.w3.org/2000/svg" width="49.337" height="34.176" viewBox="0 0 49.337 34.176">
  <path id="Tracé_46" data-name="Tracé 46" d="M212.608,79.344A1.637,1.637,0,0,1,213,80.922c-.532,2.62-5.418,4.278-10.216,3.469,5.2,1.153,9.784-.681,10.518-3.377a1.923,1.923,0,0,0-.442-1.89l-.247.22" transform="translate(-200.162 -79.124)" fill="#262828" fill-rule="evenodd"/>
  <path id="Tracé_47" data-name="Tracé 47" d="M198.758,85.724c3.675-.4,6.547-3.508,9.109-.048-3.813-1.785-5.271.461-8.366.377,1.547,1.927,5.033,3.133,7.361,1.008a7.9,7.9,0,0,1-6.121-.748,11.281,11.281,0,0,0,7.526-.272c-1.691,4.526-6.627,4.076-9.508-.317" transform="translate(-198.758 -80.848)" fill="#17e6c8" fill-rule="evenodd"/>
  <g id="Groupe_19" data-name="Groupe 19" transform="translate(9.174 2.42)">
    <path id="Tracé_48" data-name="Tracé 48" d="M246.307,113.988c-3.121-1.055-6.108-2.521-9.39-3.081-.429-.073-.871-.07-1.42-.11.924,2.718,2.976,4.525,4.586,6.613-.86.628-1.183.045-1.529-.278-1.486-1.385-2.939-2.805-4.414-4.2a24.583,24.583,0,0,0-8.429-5.517c-3.138-1.146-6.423-1.987-9.195-4.583-.377,4.329.8,8.112.955,12.095-1.853-2.089-4.918-16.511-4.591-21.215,1.422-.308,2.857-1.016,4.237.129a1.241,1.241,0,0,1,.476.787c-1.032,2.974,1.083,4.63,2.818,6.3,2.73,2.621,6.119,4.285,9.471,5.938.146,0,.175.317.4.155a1.149,1.149,0,0,1-.331-.224,30.278,30.278,0,0,1-7.031-8.877,5.514,5.514,0,0,1-.9-3.39,3.723,3.723,0,0,1,2.46-1.475c.658.016,1.182.541,1.86.484a22.883,22.883,0,0,0,4.624-.175c1.143-.143,1.552-1.455,2.649-1.67a3.392,3.392,0,0,1,2.335,1.029c-.455.709-.552,1.134.547.761a1.165,1.165,0,0,1,.845.183c4.877,3.352,9.806,6.631,14.438,10.326a.533.533,0,0,1-.1.718c-4.763-1.64-9.766-2.5-14.44-4.416-.737-.3-1.291-.528-2.035.076a6.48,6.48,0,0,1-5.252,1.3,8.836,8.836,0,0,0,3.747,4.708c3.478,2.57,7.456,4.22,11.341,6.037.742.347,1.434.8,2.149,1.2C246.994,113.974,246.584,113.822,246.307,113.988Z" transform="translate(-212.856 -85.933)" fill="#050606"/>
    <path id="Tracé_49" data-name="Tracé 49" d="M218.078,91.661l-.513-.6a3.519,3.519,0,0,1-1.02-2.5c-.042-1.051.17-2.149-.572-3.073-.211-.383-1.343-.765-1.119-1.223.5-.1,1.947.012,2.354-.441,1.307-1.455,2.787-1.054,4.284-.363,1.427.278,1.524,1.415,1.64,2.538a.929.929,0,0,1-.816.4,3.157,3.157,0,0,0-1.978.363,5.176,5.176,0,0,0-.421.377c-.543.831-.032.884.616.832.966.145,2-.252,2.9.375l1.823,1.431q.24.139.154.265c-.055.083-.111.124-.168.124-.439.988-1.694.668-2.278,1.424C221.323,90.63,219.706,91.561,218.078,91.661Z" transform="translate(-213.544 -82.844)" fill="#050606"/>
    <path id="Tracé_50" data-name="Tracé 50" d="M237.664,90.7c.588.167,1.268-.093,1.788.387.629,1.406-.86,1.541-1.361,2.268-1.746.94-3.628.227-5.433.442-1.592-1.724.856-.733.909-1.353Z" transform="translate(-219.585 -85.589)" fill="#050606"/>
    <path id="Tracé_51" data-name="Tracé 51" d="M225.392,87.781l.341.094a4.038,4.038,0,0,1,.017,2.2l-3.155,0c-2.143-.115-.649-1.122-.445-1.813l0,0a7.145,7.145,0,0,1,2.26-.457Z" transform="translate(-215.859 -84.568)" fill="#070808"/>
    <path id="Tracé_52" data-name="Tracé 52" d="M213.345,91.283a.873.873,0,0,1,1.291-.114,2.224,2.224,0,0,0,1.719-.154q.267,1.437.536,2.874c-1.237-1.009-2.749.458-4-.442Z" transform="translate(-212.869 -85.669)" fill="#050606"/>
    <path id="Tracé_53" data-name="Tracé 53" d="M247.312,93.5l.955.26.517.538c-1.05.109-2.178,1.116-3.172-.238C246.083,93.4,246.962,94.263,247.312,93.5Z" transform="translate(-224.297 -86.564)" fill="#050606"/>
    <path id="Tracé_54" data-name="Tracé 54" d="M241.295,93.511c.09-.975,1.553-1.125,1.361-2.268l.478-.1a.527.527,0,0,0,.411.115,2.324,2.324,0,0,1,.173.366C242.825,92.143,242.618,93.542,241.295,93.511Z" transform="translate(-222.789 -85.741)" fill="#050606"/>
    <path id="Tracé_55" data-name="Tracé 55" d="M264.263,125.76l.885-.37c.342.487,1.748.372,1.242,1.03C265.751,127.252,264.959,126.129,264.263,125.76Z" transform="translate(-230.812 -97.705)" fill="#050506"/>
    <path id="Tracé_56" data-name="Tracé 56" d="M233.119,93.385c-.107.582-1.577.25-.909,1.353-.706.09-.887-.632-1.372-.885,0-.13.007-.26.013-.39Z" transform="translate(-219.137 -86.526)" fill="#050606"/>
    <path id="Tracé_57" data-name="Tracé 57" d="M240.093,121.962c.252.239.47.35.522.513a.739.739,0,0,1-.4.934.387.387,0,0,1-.6-.377A4.136,4.136,0,0,1,240.093,121.962Z" transform="translate(-222.203 -96.507)" fill="#fafafa"/>
    <path id="Tracé_58" data-name="Tracé 58" d="M272.522,111.308l.1-.718c.521.229,1.066.431,1.239,1.208A1.726,1.726,0,0,1,272.522,111.308Z" transform="translate(-233.697 -92.535)" fill="#050606"/>
    <path id="Tracé_59" data-name="Tracé 59" d="M219.444,95.691c1.617-.938,3.227-2.374,4.888-.066,1.279,5.018,4.783,8.516,8.235,12.05.1.491-.034.755-.591.595-4.61-2.076-9.052-4.386-12.2-8.553C218.794,98.422,218.189,97.145,219.444,95.691Z" transform="translate(-214.91 -86.873)" fill="#fefefe"/>
    <path id="Tracé_60" data-name="Tracé 60" d="M239.082,115.4l.592-.595a2.166,2.166,0,0,1,1.3,1.341A2.146,2.146,0,0,1,239.082,115.4Z" transform="translate(-222.016 -94.009)" fill="#fefefe"/>
    <path id="Tracé_61" data-name="Tracé 61" d="M222.033,88.527c.217.587-1.121,1.557.445,1.813-.414.495-.945.622-1.223,0A1.3,1.3,0,0,1,222.033,88.527Z" transform="translate(-215.742 -84.829)" fill="#050606"/>
    <path id="Tracé_62" data-name="Tracé 62" d="M221.417,85a1.434,1.434,0,0,1-1.448.444c-.081-.023-.159-.487-.083-.545C220.306,84.578,220.774,84.568,221.417,85Z" transform="translate(-215.3 -83.48)" fill="#fefefe"/>
    <path id="Tracé_63" data-name="Tracé 63" d="M224.779,87.67a3.742,3.742,0,0,1-2.26.457C223.224,87.734,223.849,86.948,224.779,87.67Z" transform="translate(-216.231 -84.427)" fill="#050606"/>
    <path id="Tracé_64" data-name="Tracé 64" d="M242.4,91.448s-5.26-4.892-7.863-2.759L231.1,90.037l-2.268.078-1.823-1.431s.688-4.293-1.942-4.884l3.241,10.038Z" transform="translate(-217.123 -83.178)" fill="#050606"/>
  </g>
</svg>
