<svg xmlns="http://www.w3.org/2000/svg" width="15.034" height="19" viewBox="0 0 15.034 19">
  <g id="Groupe_17584" data-name="Groupe 17584" transform="translate(-1832.012 -31.143)">
    <path id="notification" d="M68.158,15.121a2.952,2.952,0,0,1-.9-1.222,14.135,14.135,0,0,1-.935-5.585c0-.007,0-.014,0-.021A5.391,5.391,0,0,0,63.152,3.4V2.117A2.117,2.117,0,0,0,61.039,0h-.175a2.117,2.117,0,0,0-2.113,2.117V3.4a5.391,5.391,0,0,0-3.174,4.911,14.135,14.135,0,0,1-.935,5.585,2.952,2.952,0,0,1-.9,1.222.541.541,0,0,0-.3.616.566.566,0,0,0,.558.435h4.08a2.866,2.866,0,0,0,5.731,0H67.9a.566.566,0,0,0,.558-.435A.541.541,0,0,0,68.158,15.121Zm-8.294-13a1,1,0,0,1,1-1h.175a1,1,0,0,1,1,1v.925a5.391,5.391,0,0,0-2.175,0V2.117Zm1.087,15.769A1.757,1.757,0,0,1,59.2,16.171h3.5A1.757,1.757,0,0,1,60.951,17.885Zm2.241-2.829H55.274a5.836,5.836,0,0,0,.292-.512,14.093,14.093,0,0,0,1.124-6.23,4.261,4.261,0,1,1,8.522,0c0,.007,0,.014,0,.021a14.065,14.065,0,0,0,1.124,6.208,5.839,5.839,0,0,0,.292.512Z" transform="translate(1778.577 31.143)" fill="#a2a2a2"/>
  </g>
</svg>
