<svg xmlns="http://www.w3.org/2000/svg" width="17.996" height="18" viewBox="0 0 17.996 18">
  <g id="pie-chart" transform="translate(-0.05)">
    <g id="Groupe_30" data-name="Groupe 30" transform="translate(0.05)">
      <path id="Tracé_56" data-name="Tracé 56" d="M15.485,58.564H8.526V51.606A.5.5,0,0,0,8.02,51.1a7.97,7.97,0,1,0,7.97,7.97A.509.509,0,0,0,15.485,58.564ZM8.02,66.028a6.958,6.958,0,0,1-.506-13.9V59.07a.5.5,0,0,0,.506.506H14.96A6.965,6.965,0,0,1,8.02,66.028Z" transform="translate(-0.05 -49.04)" fill="#a2a2a2"/>
      <path id="Tracé_57" data-name="Tracé 57" d="M259.263,8.541A8.568,8.568,0,0,0,250.694,0a.542.542,0,0,0-.544.544V8.569a.542.542,0,0,0,.544.544h8.025a.542.542,0,0,0,.544-.544Zm-8.025-.512V1.112a7.486,7.486,0,0,1,6.916,6.916Z" transform="translate(-241.267 0)" fill="#a2a2a2"/>
    </g>
  </g>
</svg>
