<svg id="Groupe_17172" data-name="Groupe 17172" xmlns="http://www.w3.org/2000/svg" width="18.015" height="18" viewBox="0 0 18.015 18">
  <path id="Tracé_70" data-name="Tracé 70" d="M17.093,7.112,15.828,6.9a7.131,7.131,0,0,0-.508-1.226l.745-1.042a1.108,1.108,0,0,0-.12-1.433L14.823,2.077a1.105,1.105,0,0,0-.787-.327,1.094,1.094,0,0,0-.644.207L12.347,2.7a7.069,7.069,0,0,0-1.272-.523L10.865.93A1.111,1.111,0,0,0,9.766,0H8.181a1.111,1.111,0,0,0-1.1.929L6.864,2.208a6.967,6.967,0,0,0-1.223.515L4.606,1.979a1.112,1.112,0,0,0-1.434.12L2.047,3.22a1.112,1.112,0,0,0-.12,1.433l.753,1.057a6.965,6.965,0,0,0-.5,1.23L.93,7.149A1.111,1.111,0,0,0,0,8.247V9.83a1.111,1.111,0,0,0,.93,1.1l1.28.218a6.955,6.955,0,0,0,.516,1.222L1.983,13.4a1.108,1.108,0,0,0,.12,1.433l1.121,1.121a1.105,1.105,0,0,0,.787.327,1.094,1.094,0,0,0,.644-.207l1.057-.752a7.122,7.122,0,0,0,1.189.489l.211,1.263a1.111,1.111,0,0,0,1.1.929H9.8a1.111,1.111,0,0,0,1.1-.929l.215-1.263A7.143,7.143,0,0,0,12.34,15.3l1.042.745a1.105,1.105,0,0,0,.647.207h0a1.105,1.105,0,0,0,.787-.327L15.937,14.8a1.112,1.112,0,0,0,.12-1.433l-.745-1.045a7.08,7.08,0,0,0,.508-1.226l1.264-.211a1.111,1.111,0,0,0,.93-1.1V8.209A1.1,1.1,0,0,0,17.093,7.112Zm-.087,2.681a.1.1,0,0,1-.083.1l-1.581.263a.505.505,0,0,0-.406.372,6.017,6.017,0,0,1-.655,1.576.508.508,0,0,0,.023.553l.93,1.309a.1.1,0,0,1-.011.128L14.1,15.211a.1.1,0,0,1-.071.03.092.092,0,0,1-.056-.019l-1.306-.929a.509.509,0,0,0-.553-.023,6.027,6.027,0,0,1-1.577.654.5.5,0,0,0-.373.406L9.9,16.911a.1.1,0,0,1-.1.083H8.215a.1.1,0,0,1-.1-.083l-.263-1.579a.5.5,0,0,0-.373-.406,6.258,6.258,0,0,1-1.543-.632.521.521,0,0,0-.256-.068.5.5,0,0,0-.294.094l-1.317.936a.112.112,0,0,1-.056.019.1.1,0,0,1-.072-.03L2.822,14.124A.1.1,0,0,1,2.811,14l.926-1.3a.514.514,0,0,0,.023-.557A5.96,5.96,0,0,1,3.1,10.571a.515.515,0,0,0-.406-.372L1.1,9.928a.1.1,0,0,1-.083-.1V8.247a.1.1,0,0,1,.083-.1l1.569-.263a.509.509,0,0,0,.41-.376,6.011,6.011,0,0,1,.644-1.579A.5.5,0,0,0,3.7,5.382L2.758,4.066a.1.1,0,0,1,.011-.128L3.891,2.817a.1.1,0,0,1,.072-.03.092.092,0,0,1,.056.019l1.3.925a.516.516,0,0,0,.557.023,5.97,5.97,0,0,1,1.573-.662.515.515,0,0,0,.373-.406L8.091,1.1a.1.1,0,0,1,.1-.083H9.773a.1.1,0,0,1,.1.083l.263,1.568a.509.509,0,0,0,.376.41,6.111,6.111,0,0,1,1.614.662.509.509,0,0,0,.553-.023l1.3-.933a.112.112,0,0,1,.056-.019.1.1,0,0,1,.072.03l1.121,1.121a.1.1,0,0,1,.011.128l-.93,1.3a.508.508,0,0,0-.023.553,6.017,6.017,0,0,1,.655,1.576.5.5,0,0,0,.406.372l1.581.267a.1.1,0,0,1,.083.1V9.793Z" transform="translate(0 -0.001)" fill="#a2a2a2"/>
  <path id="Tracé_71" data-name="Tracé 71" d="M140.254,136a4.154,4.154,0,1,0,4.154,4.154A4.156,4.156,0,0,0,140.254,136Zm0,7.222a3.068,3.068,0,1,1,3.068-3.068A3.07,3.07,0,0,1,140.254,143.223Z" transform="translate(-131.245 -131.157)" fill="#a2a2a2"/>
</svg>
