<svg xmlns="http://www.w3.org/2000/svg" width="16.467" height="19.878" viewBox="0 0 16.467 19.878">
  <g id="shutdown" transform="translate(0.011 -0.002)">
    <path id="Tracé_11423" data-name="Tracé 11423" d="M8.222,111.375A8.226,8.226,0,0,1,6.04,95.216.686.686,0,1,1,6.4,96.538a6.855,6.855,0,1,0,3.787.043.685.685,0,1,1,.393-1.313,8.226,8.226,0,0,1-2.361,16.108Zm0,0" transform="translate(0 -91.495)" fill="#a2a2a2"/>
    <path id="Tracé_11424" data-name="Tracé 11424" d="M194.892,6.855a.622.622,0,0,1-.686-.527V.528a.709.709,0,0,1,1.371,0v5.8a.622.622,0,0,1-.685.527Zm0,0" transform="translate(-186.67)" fill="#a2a2a2"/>
  </g>
</svg>
