<svg xmlns="http://www.w3.org/2000/svg" width="18" height="18" viewBox="0 0 18 18">
  <g id="Groupe_17298" data-name="Groupe 17298" transform="translate(-34 -247)">
    <path id="Rectangle_589" data-name="Rectangle 589" d="M1.13.9A.226.226,0,0,0,.9,1.125v15.75a.226.226,0,0,0,.226.225H7.155a.226.226,0,0,0,.226-.225V1.125A.226.226,0,0,0,7.155.9H1.13m0-.9H7.155a1.127,1.127,0,0,1,1.13,1.125v15.75A1.127,1.127,0,0,1,7.155,18H1.13A1.127,1.127,0,0,1,0,16.875V1.125A1.127,1.127,0,0,1,1.13,0Z" transform="translate(34 247)" fill="#a2a2a2"/>
    <path id="Rectangle_590" data-name="Rectangle 590" d="M1.13.9A.226.226,0,0,0,.9,1.13V7.155a.226.226,0,0,0,.226.226H7.155a.226.226,0,0,0,.226-.226V1.13A.226.226,0,0,0,7.155.9H1.13m0-.9H7.155a1.13,1.13,0,0,1,1.13,1.13V7.155a1.13,1.13,0,0,1-1.13,1.13H1.13A1.13,1.13,0,0,1,0,7.155V1.13A1.13,1.13,0,0,1,1.13,0Z" transform="translate(43.715 247)" fill="#a2a2a2"/>
    <path id="Rectangle_591" data-name="Rectangle 591" d="M1.13.9A.226.226,0,0,0,.9,1.13V7.155a.226.226,0,0,0,.226.226H7.155a.226.226,0,0,0,.226-.226V1.13A.226.226,0,0,0,7.155.9H1.13m0-.9H7.155a1.13,1.13,0,0,1,1.13,1.13V7.155a1.13,1.13,0,0,1-1.13,1.13H1.13A1.13,1.13,0,0,1,0,7.155V1.13A1.13,1.13,0,0,1,1.13,0Z" transform="translate(43.715 256.715)" fill="#a2a2a2"/>
  </g>
</svg>
