<svg xmlns="http://www.w3.org/2000/svg" width="14.598" height="18" viewBox="0 0 14.598 18">
  <path id="Tracé_801" data-name="Tracé 801" d="M8.824-7.27h1.1v9h-1.1Zm2.25,0h1.1v9h-1.1Zm2.25,0h1.1v9h-1.1Zm-9-3.348h14.6v1.1H4.324Zm10.1,0h-1.1v-.549a.534.534,0,0,0-.6-.6h-2.2a.534.534,0,0,0-.6.6v.549h-1.1v-.549a1.693,1.693,0,0,1,.466-1.207,1.619,1.619,0,0,1,1.235-.494h2.2a1.619,1.619,0,0,1,1.235.494,1.693,1.693,0,0,1,.466,1.207Zm.549,15.75h-6.7a1.735,1.735,0,0,1-1.235-.494,1.752,1.752,0,0,1-.576-1.152l-1.043-13.5,1.152-.11.988,13.5a.487.487,0,0,0,.055.22.545.545,0,0,0,.165.192A1.442,1.442,0,0,0,8,3.925a.611.611,0,0,0,.274.055h6.7a.657.657,0,0,0,.713-.6l.988-13.5,1.152.11-1.043,13.5a1.752,1.752,0,0,1-.576,1.152A1.735,1.735,0,0,1,14.971,5.133Z" transform="translate(-4.324 12.867)" fill="#a2a2a2"/>
</svg>
