<svg id="download" xmlns="http://www.w3.org/2000/svg" width="23.982" height="22.506" viewBox="0 0 23.982 22.506">
  <path id="Tracé_194" data-name="Tracé 194" d="M19.366,6.038a7.5,7.5,0,0,0-14.716,0,5.252,5.252,0,0,0,.6,10.47H9.007a.75.75,0,0,0,0-1.5H5.255A3.752,3.752,0,1,1,5.3,7.5a.75.75,0,0,0,.746-.668,6,6,0,0,1,11.925,0,.8.8,0,0,0,.79.668,3.752,3.752,0,1,1,0,7.5H15.009a.75.75,0,1,0,0,1.5h3.752a5.252,5.252,0,0,0,.605-10.465Zm0,0" transform="translate(0.001 0)" fill="#17e6c8"/>
  <path id="Tracé_195" data-name="Tracé 195" d="M178.818,216.464l-1.9,1.9v-9.443a.75.75,0,1,0-1.5,0v9.443l-1.9-1.9a.75.75,0,0,0-1.079,1.042l.018.018,3.182,3.183a.753.753,0,0,0,.242.162.741.741,0,0,0,.578,0,.75.75,0,0,0,.242-.162l3.182-3.183a.75.75,0,1,0-1.043-1.079Zm0,0" transform="translate(-164.157 -198.422)" fill="#17e6c8"/>
</svg>
