<svg xmlns="http://www.w3.org/2000/svg" width="31.451" height="27" viewBox="0 0 31.451 27">
  <g id="folder" transform="translate(0 -34.05)">
    <path id="Tracé_27" data-name="Tracé 27" d="M26.4,38.22H18.948a3.29,3.29,0,0,1-3.288-3.288.879.879,0,0,0-.882-.882H5.052A5.06,5.06,0,0,0,0,39.1V56A5.06,5.06,0,0,0,5.052,61.05H26.4A5.06,5.06,0,0,0,31.451,56V43.266A5.054,5.054,0,0,0,26.4,38.22Zm3.288,17.771A3.29,3.29,0,0,1,26.4,59.279H5.052a3.29,3.29,0,0,1-3.288-3.288V39.1a3.29,3.29,0,0,1,3.288-3.288h8.922a5.061,5.061,0,0,0,4.974,4.17H26.4a3.29,3.29,0,0,1,3.288,3.288V55.991Z" fill="#17e6c8"/>
  </g>
</svg>
