<svg xmlns="http://www.w3.org/2000/svg" width="23.714" height="6.698" viewBox="0 0 23.714 6.698">
  <g id="menu" transform="matrix(0.035, 0.999, -0.999, 0.035, 23.509, 0)">
    <g id="Groupe_98" data-name="Groupe 98">
      <g id="Groupe_97" data-name="Groupe 97">
        <path id="Tracé_189" data-name="Tracé 189" d="M2.94,0a2.94,2.94,0,1,0,2.94,2.94A2.944,2.944,0,0,0,2.94,0Zm0,4.9A1.96,1.96,0,1,1,4.9,2.94,1.963,1.963,0,0,1,2.94,4.9Z" transform="translate(0 8.821)" fill="#17e6c8"/>
        <path id="Tracé_190" data-name="Tracé 190" d="M2.94,0a2.94,2.94,0,1,0,2.94,2.94A2.944,2.944,0,0,0,2.94,0Zm0,4.9A1.96,1.96,0,1,1,4.9,2.94,1.963,1.963,0,0,1,2.94,4.9Z" transform="translate(0 17.643)" fill="#17e6c8"/>
        <path id="Tracé_191" data-name="Tracé 191" d="M2.94,5.881A2.94,2.94,0,1,0,0,2.94,2.944,2.944,0,0,0,2.94,5.881Zm0-4.9A1.96,1.96,0,1,1,.98,2.94,1.963,1.963,0,0,1,2.94.98Z" fill="#17e6c8"/>
      </g>
    </g>
  </g>
</svg>
