<svg xmlns="http://www.w3.org/2000/svg" width="32" height="28" viewBox="0 0 32 28">
  <g id="Groupe_17929" data-name="Groupe 17929" transform="translate(-1273 -242)">
    <g id="Union_13" data-name="Union 13" transform="translate(1273 242)" fill="none">
      <path d="M12.8,28V23.873H2a2,2,0,0,1-2-2V2A2,2,0,0,1,2,0H22.685a2,2,0,0,1,2,2V15.077H32V28Z" stroke="none"/>
      <path d="M 30.9995002746582 26.99990081787109 L 30.9995002746582 16.07680130004883 L 23.68610000610352 16.07680130004883 L 23.68610000610352 1.999800443649292 C 23.68610000610352 1.448510408401489 23.23719024658203 1.000000357627869 22.68540000915527 1.000000357627869 L 2.000700235366821 1.000000357627869 C 1.448910117149353 1.000000357627869 1.00000011920929 1.448510408401489 1.00000011920929 1.999800443649292 L 1.00000011920929 21.87360000610352 C 1.00000011920929 22.42489051818848 1.448910117149353 22.87339973449707 2.000700235366821 22.87339973449707 L 13.79979991912842 22.87339973449707 L 13.79979991912842 26.99990081787109 L 30.9995002746582 26.99990081787109 M 31.9995002746582 27.99990081787109 L 12.79979991912842 27.99990081787109 L 12.79979991912842 23.87339973449707 L 2.000700235366821 23.87339973449707 C 0.895500123500824 23.87339973449707 1.373290956507844e-07 22.9778995513916 1.373290956507844e-07 21.87360000610352 L 1.373290956507844e-07 1.999800443649292 C 1.373290956507844e-07 0.8955004215240479 0.895500123500824 4.089355343239731e-07 2.000700235366821 4.089355343239731e-07 L 22.68540000915527 4.089355343239731e-07 C 23.79059982299805 4.089355343239731e-07 24.68610000610352 0.8955004215240479 24.68610000610352 1.999800443649292 L 24.68610000610352 15.07680034637451 L 31.9995002746582 15.07680034637451 L 31.9995002746582 27.99990081787109 Z" stroke="none" fill="#17e6c8"/>
    </g>
    <line id="Ligne_2050" data-name="Ligne 2050" x2="23.594" transform="translate(1273.476 246.597)" fill="none" stroke="#17e6c8" stroke-width="1"/>
    <g id="Union_15" data-name="Union 15" transform="translate(2783 -5246)" fill="none" stroke-dasharray="1 1">
      <path d="M-1497,5516v-8.444h-8a1,1,0,0,1-1-1V5498a1,1,0,0,1,1-1h14.153a1,1,0,0,1,1,1v5H-1478v13Z" stroke="none"/>
      <path d="M -1480.000732421875 5516 L -1481.000732421875 5516 L -1481.000732421875 5515 L -1480.000732421875 5515 L -1480.000732421875 5516 Z M -1482.000732421875 5516 L -1483.000732421875 5516 L -1483.000732421875 5515 L -1482.000732421875 5515 L -1482.000732421875 5516 Z M -1484.000732421875 5516 L -1485.000732421875 5516 L -1485.000732421875 5515 L -1484.000732421875 5515 L -1484.000732421875 5516 Z M -1486.000732421875 5516 L -1487.000732421875 5516 L -1487.000732421875 5515 L -1486.000732421875 5515 L -1486.000732421875 5516 Z M -1488.000732421875 5516 L -1489.000732421875 5516 L -1489.000732421875 5515 L -1488.000732421875 5515 L -1488.000732421875 5516 Z M -1490.000732421875 5516 L -1491.000732421875 5516 L -1491.000732421875 5515 L -1490.000732421875 5515 L -1490.000732421875 5516 Z M -1492.000732421875 5516 L -1493.000732421875 5516 L -1493.000732421875 5515 L -1492.000732421875 5515 L -1492.000732421875 5516 Z M -1494.000732421875 5516 L -1495.000732421875 5516 L -1495.000732421875 5515 L -1494.000732421875 5515 L -1494.000732421875 5516 Z M -1496.000732421875 5516 L -1497.000732421875 5516 L -1497.000732421875 5515 C -1497.000732421875 5515 -1497.000732421875 5514 -1497.000732421875 5514 L -1496.000732421875 5514 L -1496.000732421875 5516 Z M -1496.000732421875 5513 L -1497.000732421875 5513 C -1497.000732421875 5513 -1497.000732421875 5512 -1497.000732421875 5512 L -1496.000732421875 5512 L -1496.000732421875 5513 Z M -1496.000732421875 5511 L -1497.000732421875 5511 C -1497.000732421875 5511 -1497.000732421875 5510 -1497.000732421875 5510 L -1496.000732421875 5510 L -1496.000732421875 5511 Z M -1496.000732421875 5509 L -1497.000732421875 5509 C -1497.000732421875 5509 -1497.000732421875 5508 -1497.000732421875 5508 L -1496.000732421875 5508 L -1496.000732421875 5509 Z M -1497.556396484375 5507.5556640625 L -1498.556396484375 5507.5556640625 L -1498.556396484375 5506.5556640625 L -1497.556396484375 5506.5556640625 L -1497.556396484375 5507.5556640625 Z M -1499.556396484375 5507.5556640625 L -1500.556396484375 5507.5556640625 L -1500.556396484375 5506.5556640625 L -1499.556396484375 5506.5556640625 L -1499.556396484375 5507.5556640625 Z M -1501.556396484375 5507.5556640625 L -1502.556396484375 5507.5556640625 L -1502.556396484375 5506.5556640625 L -1501.556396484375 5506.5556640625 L -1501.556396484375 5507.5556640625 Z M -1503.556396484375 5507.5556640625 L -1504.556396484375 5507.5556640625 L -1504.556396484375 5506.5556640625 L -1503.556396484375 5506.5556640625 L -1503.556396484375 5507.5556640625 Z M -1505.528076171875 5507.40478515625 C -1505.56494140625 5507.3818359375 -1505.60009765625 5507.3564453125 -1505.633544921875 5507.3291015625 C -1505.633544921875 5507.3291015625 -1505.633544921875 5507.3291015625 -1505.633544921875 5507.3291015625 C -1505.723266601562 5507.25537109375 -1505.799926757812 5507.1669921875 -1505.859619140625 5507.06689453125 L -1505.001098632812 5506.55419921875 C -1505.000854492188 5506.5546875 -1504.999877929688 5506.5556640625 -1504.999145507812 5506.55615234375 L -1505.528076171875 5507.40478515625 Z M -1505.000244140625 5505.5703125 L -1506.000244140625 5505.5703125 C -1506.000244140625 5505.5703125 -1506.000244140625 5504.5703125 -1506.000244140625 5504.5703125 L -1505.000244140625 5504.5703125 L -1505.000244140625 5505.5703125 Z M -1505.000244140625 5503.5703125 L -1506.000244140625 5503.5703125 C -1506.000244140625 5503.5703125 -1506.000244140625 5502.5703125 -1506.000244140625 5502.5703125 L -1505.000244140625 5502.5703125 L -1505.000244140625 5503.5703125 Z M -1505.000244140625 5501.5703125 L -1506.000244140625 5501.5703125 C -1506.000244140625 5501.5703125 -1506.000244140625 5500.5703125 -1506.000244140625 5500.5703125 L -1505.000244140625 5500.5703125 L -1505.000244140625 5501.5703125 Z M -1505.000244140625 5499.5703125 L -1506.000244140625 5499.5703125 C -1506.000244140625 5499.5703125 -1506.000244140625 5498.5703125 -1506.000244140625 5498.5703125 L -1505.000244140625 5498.5703125 L -1505.000244140625 5499.5703125 Z M -1505.001098632812 5498.0009765625 L -1505.00390625 5497.99951171875 L -1505.000854492188 5498.00048828125 C -1505.0009765625 5498.0009765625 -1505.001098632812 5498.0009765625 -1505.001098632812 5498.0009765625 Z M -1505.00390625 5497.99951171875 L -1505.909545898438 5497.5830078125 C -1505.890991210938 5497.54296875 -1505.869750976562 5497.50390625 -1505.846069335938 5497.46630859375 L -1505.00390625 5497.99951171875 Z M -1503.141235351562 5498 L -1504.141235351562 5498 L -1504.141235351562 5497 C -1504.141235351562 5497 -1503.141235351562 5497 -1503.141235351562 5497 L -1503.141235351562 5498 Z M -1501.141235351562 5498 L -1502.141235351562 5498 L -1502.141235351562 5497 C -1502.141235351562 5497 -1501.141235351562 5497 -1501.141235351562 5497 L -1501.141235351562 5498 Z M -1499.141235351562 5498 L -1500.141235351562 5498 L -1500.141235351562 5497 C -1500.141235351562 5497 -1499.141235351562 5497 -1499.141235351562 5497 L -1499.141235351562 5498 Z M -1497.141235351562 5498 L -1498.141235351562 5498 L -1498.141235351562 5497 C -1498.141235351562 5497 -1497.141235351562 5497 -1497.141235351562 5497 L -1497.141235351562 5498 Z M -1495.141235351562 5498 L -1496.141235351562 5498 L -1496.141235351562 5497 C -1496.141235351562 5497 -1495.141235351562 5497 -1495.141235351562 5497 L -1495.141235351562 5498 Z M -1493.141235351562 5498 L -1494.141235351562 5498 L -1494.141235351562 5497 C -1494.141235351562 5497 -1493.141235351562 5497 -1493.141235351562 5497 L -1493.141235351562 5498 Z M -1491.141235351562 5498 L -1492.141235351562 5498 L -1492.141235351562 5497 C -1492.141235351562 5497 -1491.141235351562 5497 -1491.141235351562 5497 L -1491.141235351562 5498 Z M -1489.846435546875 5498.1337890625 L -1490.846435546875 5498.1337890625 L -1490.845703125 5498.00048828125 C -1490.845825195312 5498 -1490.846069335938 5498 -1490.846435546875 5497.99951171875 L -1490.1982421875 5497.23828125 C -1490.197875976562 5497.23876953125 -1490.197265625 5497.23876953125 -1490.196655273438 5497.2392578125 C -1490.19580078125 5497.23828125 -1490.195556640625 5497.240234375 -1490.194946289062 5497.24072265625 C -1490.194458007812 5497.244140625 -1490.19384765625 5497.2421875 -1490.193237304688 5497.2421875 C -1490.192749023438 5497.24169921875 -1490.192016601562 5497.24365234375 -1490.191528320312 5497.24365234375 C -1490.19091796875 5497.24560546875 -1490.190551757812 5497.24462890625 -1490.18994140625 5497.2451171875 C -1490.189575195312 5497.24560546875 -1490.189086914062 5497.24658203125 -1490.188232421875 5497.24658203125 C -1490.187866210938 5497.2470703125 -1490.18798828125 5497.24609375 -1490.186767578125 5497.248046875 C -1490.186279296875 5497.24853515625 -1490.1865234375 5497.24951171875 -1490.184814453125 5497.24951171875 C -1490.1845703125 5497.25 -1490.184204101562 5497.25 -1490.183837890625 5497.25048828125 C -1490.184326171875 5497.2509765625 -1490.182495117188 5497.25244140625 -1490.181640625 5497.25244140625 C -1490.181640625 5497.25244140625 -1490.181518554688 5497.25244140625 -1490.181518554688 5497.25244140625 C -1490.180419921875 5497.25341796875 -1490.179321289062 5497.25439453125 -1490.17822265625 5497.25537109375 C -1490.17822265625 5497.25537109375 -1490.17822265625 5497.25537109375 -1490.17822265625 5497.25537109375 C -1490.126586914062 5497.3017578125 -1490.079711914062 5497.353515625 -1490.038696289062 5497.40966796875 C -1490.038452148438 5497.40966796875 -1490.0380859375 5497.41015625 -1490.037719726562 5497.4111328125 C -1490.037719726562 5497.4111328125 -1490.037719726562 5497.4111328125 -1490.037719726562 5497.4111328125 C -1490.036987304688 5497.41162109375 -1490.036376953125 5497.41357421875 -1490.035888671875 5497.41357421875 C -1490.03515625 5497.4150390625 -1490.03466796875 5497.4150390625 -1490.0341796875 5497.416015625 C -1490.033569335938 5497.41455078125 -1490.033203125 5497.41748046875 -1490.033081054688 5497.41748046875 C -1490.032592773438 5497.41845703125 -1490.0322265625 5497.41943359375 -1490.031494140625 5497.419921875 C -1490.03125 5497.419921875 -1490.030883789062 5497.42041015625 -1490.030151367188 5497.42138671875 C -1490.030151367188 5497.421875 -1490.030029296875 5497.421875 -1490.030029296875 5497.421875 C -1490.029174804688 5497.4228515625 -1490.02880859375 5497.423828125 -1490.028564453125 5497.423828125 C -1490.02783203125 5497.4248046875 -1490.026977539062 5497.42626953125 -1490.026123046875 5497.42724609375 C -1490.026123046875 5497.42724609375 -1490.026123046875 5497.42724609375 -1490.026123046875 5497.42724609375 C -1490.01904296875 5497.4375 -1490.01220703125 5497.44775390625 -1490.005615234375 5497.4580078125 C -1489.846435546875 5497.99951171875 -1489.846435546875 5498.1337890625 -1489.846435546875 5498.1337890625 L -1489.846435546875 5498.1337890625 Z M -1489.846435546875 5500.1337890625 L -1490.846435546875 5500.1337890625 L -1490.846435546875 5499.1337890625 L -1489.846435546875 5499.1337890625 L -1489.846435546875 5500.1337890625 Z M -1489.846435546875 5502.1337890625 L -1490.846435546875 5502.1337890625 L -1490.846435546875 5501.1337890625 L -1489.846435546875 5501.1337890625 L -1489.846435546875 5502.1337890625 Z M -1488.712646484375 5504 L -1489.712646484375 5504 L -1489.712646484375 5503 C -1489.712646484375 5503 -1488.712646484375 5503 -1488.712646484375 5503 L -1488.712646484375 5504 Z M -1486.712646484375 5504 L -1487.712646484375 5504 L -1487.712646484375 5503 C -1487.712646484375 5503 -1486.712646484375 5503 -1486.712646484375 5503 L -1486.712646484375 5504 Z M -1484.712646484375 5504 L -1485.712646484375 5504 L -1485.712646484375 5503 C -1485.712646484375 5503 -1484.712646484375 5503 -1484.712646484375 5503 L -1484.712646484375 5504 Z M -1482.712646484375 5504 L -1483.712646484375 5504 L -1483.712646484375 5503 C -1483.712646484375 5503 -1482.712646484375 5503 -1482.712646484375 5503 L -1482.712646484375 5504 Z M -1480.712646484375 5504 L -1481.712646484375 5504 L -1481.712646484375 5503 C -1481.712646484375 5503 -1480.712646484375 5503 -1480.712646484375 5503 L -1480.712646484375 5504 Z M -1478.000732421875 5504.2880859375 L -1479.000732421875 5504.2880859375 L -1479.000732421875 5504 L -1479.712646484375 5504 L -1479.712646484375 5503 C -1479.712646484375 5503 -1478.712646484375 5503 -1478.712646484375 5503 L -1478.712646484375 5503.2880859375 L -1478.000732421875 5503.2880859375 L -1478.000732421875 5504.2880859375 Z M -1478.000732421875 5506.2880859375 L -1479.000732421875 5506.2880859375 L -1479.000732421875 5505.2880859375 L -1478.000732421875 5505.2880859375 L -1478.000732421875 5506.2880859375 Z M -1478.000732421875 5508.2880859375 L -1479.000732421875 5508.2880859375 L -1479.000732421875 5507.2880859375 L -1478.000732421875 5507.2880859375 L -1478.000732421875 5508.2880859375 Z M -1478.000732421875 5510.2880859375 L -1479.000732421875 5510.2880859375 L -1479.000732421875 5509.2880859375 L -1478.000732421875 5509.2880859375 L -1478.000732421875 5510.2880859375 Z M -1478.000732421875 5512.2880859375 L -1479.000732421875 5512.2880859375 L -1479.000732421875 5511.2880859375 L -1478.000732421875 5511.2880859375 L -1478.000732421875 5512.2880859375 Z M -1478.000732421875 5514.2880859375 L -1479.000732421875 5514.2880859375 L -1479.000732421875 5513.2880859375 L -1478.000732421875 5513.2880859375 L -1478.000732421875 5514.2880859375 Z M -1478.000732421875 5516 L -1479.000732421875 5516 L -1479.000732421875 5515 L -1478.000732421875 5515 L -1478.000732421875 5516 Z" stroke="none" fill="#17e6c8"/>
    </g>
    <g id="Rectangle_1339" data-name="Rectangle 1339" transform="translate(1286 257)" fill="none" stroke="#17e6c8" stroke-width="1">
      <rect width="19" height="13" stroke="none"/>
      <rect x="0.5" y="0.5" width="18" height="12" fill="none"/>
    </g>
    <line id="Ligne_2051" data-name="Ligne 2051" x2="9.652" transform="translate(1285.869 244.574)" fill="none" stroke="#17e6c8" stroke-linecap="round" stroke-width="0.6"/>
  </g>
</svg>
