<svg xmlns="http://www.w3.org/2000/svg" width="33.609" height="29.6" viewBox="0 0 33.609 29.6">
  <g id="Groupe_17926" data-name="Groupe 17926" transform="translate(2.415 1.8)">
    <path id="Tracé_11412" data-name="Tracé 11412" d="M6521.831-4184.134h-7.947s-2.413.173-2.251,2.388,0,12.778,0,12.778v2.024s.139,1.676,2.4,1.8c0,0,26.432,0,26.432,0h.771s2.156-.045,2.378-1.936c0,0,0-14.67,0-14.67s.333-2.337-2.694-2.394c0,0-6.846,0-6.846,0" transform="translate(-6513.238 4192.139)" fill="none" stroke="#17e6c8" stroke-linecap="round" stroke-width="1.6"/>
    <g id="Groupe_17925" data-name="Groupe 17925" transform="translate(9.386 -1)">
      <path id="Tracé_11413" data-name="Tracé 11413" d="M6606.524-4130.323l-4.984,5.453-5.016-5.453" transform="translate(-6596.524 4143.87)" fill="none" stroke="#17e6c8" stroke-linecap="round" stroke-width="1.6"/>
      <path id="Tracé_11414" data-name="Tracé 11414" d="M6664.091-4273.67v-18.739" transform="translate(-6659.078 4292.409)" fill="none" stroke="#17e6c8" stroke-linecap="round" stroke-width="1.6"/>
    </g>
  </g>
</svg>
