<svg xmlns="http://www.w3.org/2000/svg" width="147.741" height="40" viewBox="0 0 147.741 40">
  <g id="Groupe_17661" data-name="Groupe 17661" transform="translate(-29.9 -134.495)">
    <g id="Groupe_20" data-name="Groupe 20" transform="translate(29.9 134.495)">
      <path id="Tracé_46" data-name="Tracé 46" d="M214.273,79.381a1.915,1.915,0,0,1,.453,1.845c-.622,3.064-6.337,5-11.947,4.057,6.084,1.348,11.442-.8,12.3-3.949a2.249,2.249,0,0,0-.517-2.21l-.289.257" transform="translate(-199.719 -79.124)" fill="#262828" fill-rule="evenodd"/>
      <path id="Tracé_47" data-name="Tracé 47" d="M198.758,86.006c4.3-.464,7.657-4.1,10.652-.056-4.459-2.087-6.165.539-9.784.441,1.809,2.253,5.885,3.664,8.608,1.179a9.24,9.24,0,0,1-7.158-.875,13.192,13.192,0,0,0,8.8-.318c-1.977,5.293-7.75,4.767-11.119-.371" transform="translate(-198.758 -80.304)" fill="#17e6c8" fill-rule="evenodd"/>
      <g id="Groupe_19" data-name="Groupe 19" transform="translate(10.728 2.83)">
        <path id="Tracé_48" data-name="Tracé 48" d="M251.974,117.766c-3.65-1.234-7.143-2.949-10.981-3.6-.5-.085-1.018-.081-1.66-.129,1.081,3.179,3.481,5.292,5.362,7.734-1.005.734-1.383.052-1.788-.325-1.737-1.62-3.436-3.28-5.162-4.913a28.748,28.748,0,0,0-9.857-6.451c-3.669-1.34-7.511-2.324-10.752-5.359-.441,5.062.941,9.487,1.117,14.144-2.167-2.443-5.751-19.308-5.369-24.809,1.663-.36,3.341-1.188,4.955.151a1.451,1.451,0,0,1,.557.92c-1.207,3.478,1.266,5.414,3.3,7.362,3.193,3.065,7.155,5.011,11.076,6.944.17,0,.2.371.468.181a1.342,1.342,0,0,1-.387-.262,35.408,35.408,0,0,1-8.222-10.381,6.448,6.448,0,0,1-1.051-3.964c.637-1.112,1.78-1.381,2.877-1.724.769.019,1.383.633,2.175.566a26.757,26.757,0,0,0,5.407-.2c1.337-.167,1.815-1.7,3.1-1.953a3.967,3.967,0,0,1,2.731,1.2c-.532.829-.645,1.326.64.89a1.363,1.363,0,0,1,.988.214c5.7,3.92,11.468,7.754,16.884,12.076a.623.623,0,0,1-.116.84c-5.569-1.918-11.42-2.919-16.886-5.165-.861-.355-1.51-.617-2.38.089a7.578,7.578,0,0,1-6.142,1.523c.735,2.6,2.507,4.119,4.382,5.505,4.067,3.006,8.719,4.935,13.263,7.06.867.406,1.676.936,2.513,1.409C252.778,117.749,252.3,117.571,251.974,117.766Z" transform="translate(-212.856 -84.925)" fill="#050606"/>
        <path id="Tracé_49" data-name="Tracé 49" d="M218.629,93.155l-.6-.7a4.115,4.115,0,0,1-1.193-2.92c-.049-1.229.2-2.513-.669-3.594-.247-.448-1.571-.894-1.308-1.43.579-.121,2.277.014,2.753-.516,1.529-1.7,3.259-1.232,5.01-.425,1.669.325,1.782,1.654,1.918,2.969a1.086,1.086,0,0,1-.954.466,3.692,3.692,0,0,0-2.313.425,6.057,6.057,0,0,0-.492.441c-.635.972-.037,1.033.721.973,1.129.17,2.34-.3,3.392.438l2.132,1.673q.281.162.18.31c-.065.1-.13.145-.2.145-.513,1.156-1.982.781-2.664,1.665C222.424,91.949,220.533,93.038,218.629,93.155Z" transform="translate(-213.327 -82.844)" fill="#050606"/>
        <path id="Tracé_50" data-name="Tracé 50" d="M238.6,90.7c.687.2,1.482-.109,2.09.453.736,1.644-1.005,1.8-1.592,2.653-2.042,1.1-4.242.266-6.353.517-1.862-2.017,1-.858,1.063-1.582Z" transform="translate(-217.461 -84.716)" fill="#050606"/>
        <path id="Tracé_51" data-name="Tracé 51" d="M226.059,87.781l.4.11a4.721,4.721,0,0,1,.02,2.573l-3.69.005c-2.506-.135-.759-1.313-.52-2.12l0,0a8.355,8.355,0,0,1,2.643-.534Z" transform="translate(-214.911 -84.024)" fill="#070808"/>
        <path id="Tracé_52" data-name="Tracé 52" d="M213.421,91.342a1.021,1.021,0,0,1,1.51-.133,2.6,2.6,0,0,0,2.01-.18q.313,1.68.627,3.36c-1.447-1.18-3.214.536-4.675-.517Z" transform="translate(-212.865 -84.771)" fill="#050606"/>
        <path id="Tracé_53" data-name="Tracé 53" d="M247.6,93.5l1.117.3.6.629c-1.228.128-2.547,1.305-3.71-.279C246.163,93.387,247.191,94.393,247.6,93.5Z" transform="translate(-220.686 -85.382)" fill="#050606"/>
        <path id="Tracé_54" data-name="Tracé 54" d="M241.295,93.913c.105-1.14,1.816-1.316,1.592-2.653l.559-.12a.616.616,0,0,0,.48.135,2.718,2.718,0,0,1,.2.428C243.085,92.313,242.842,93.949,241.295,93.913Z" transform="translate(-219.654 -84.821)" fill="#050606"/>
        <path id="Tracé_55" data-name="Tracé 55" d="M264.263,125.822l1.035-.432c.4.57,2.044.435,1.453,1.2C266,127.568,265.077,126.254,264.263,125.822Z" transform="translate(-225.145 -92.981)" fill="#050506"/>
        <path id="Tracé_56" data-name="Tracé 56" d="M233.505,93.385c-.126.681-1.844.292-1.063,1.582-.826.105-1.037-.74-1.6-1.035,0-.152.008-.3.015-.456Z" transform="translate(-217.154 -85.356)" fill="#050606"/>
        <path id="Tracé_57" data-name="Tracé 57" d="M240.174,121.962c.3.28.55.409.61.6a.864.864,0,0,1-.463,1.092.452.452,0,0,1-.7-.441A4.837,4.837,0,0,1,240.174,121.962Z" transform="translate(-219.253 -92.161)" fill="#fafafa"/>
        <path id="Tracé_58" data-name="Tracé 58" d="M272.522,111.43l.116-.84c.609.268,1.246.5,1.449,1.413A2.018,2.018,0,0,1,272.522,111.43Z" transform="translate(-227.119 -89.456)" fill="#050606"/>
        <path id="Tracé_59" data-name="Tracé 59" d="M219.564,95.913c1.891-1.1,3.774-2.776,5.716-.078,1.5,5.868,5.593,9.959,9.63,14.091.113.575-.04.883-.692.7-5.391-2.428-10.586-5.13-14.27-10C218.8,99.107,218.1,97.614,219.564,95.913Z" transform="translate(-214.261 -85.587)" fill="#fefefe"/>
        <path id="Tracé_60" data-name="Tracé 60" d="M239.082,115.506l.692-.7a2.533,2.533,0,0,1,1.52,1.568A2.51,2.51,0,0,1,239.082,115.506Z" transform="translate(-219.125 -90.462)" fill="#fefefe"/>
        <path id="Tracé_61" data-name="Tracé 61" d="M222.187,88.527c.254.686-1.31,1.82.52,2.12-.484.578-1.106.727-1.431,0A1.521,1.521,0,0,1,222.187,88.527Z" transform="translate(-214.831 -84.202)" fill="#050606"/>
        <path id="Tracé_62" data-name="Tracé 62" d="M221.682,85.06a1.677,1.677,0,0,1-1.694.519c-.094-.027-.186-.569-.1-.638C220.383,84.563,220.929,84.551,221.682,85.06Z" transform="translate(-214.529 -83.279)" fill="#fefefe"/>
        <path id="Tracé_63" data-name="Tracé 63" d="M225.162,87.72a4.376,4.376,0,0,1-2.643.534C223.343,87.794,224.074,86.875,225.162,87.72Z" transform="translate(-215.166 -83.927)" fill="#050606"/>
        <path id="Tracé_64" data-name="Tracé 64" d="M245.336,92.744s-6.151-5.721-9.2-3.226l-4.013,1.577-2.652.091-2.132-1.673s.805-5.02-2.271-5.711l3.79,11.738Z" transform="translate(-215.776 -83.072)" fill="#050606"/>
      </g>
    </g>
    <g id="Groupe_21" data-name="Groupe 21" transform="translate(93.293 145.796)">
      <path id="Tracé_65" data-name="Tracé 65" d="M288.693,125.041H284.3v6.7a3.13,3.13,0,0,1-.677,2.179,2.39,2.39,0,0,1-3.454.007,3.125,3.125,0,0,1-.663-2.155V113.532a2.979,2.979,0,0,1,.727-2.261,3.307,3.307,0,0,1,2.309-.677h6.151a16.1,16.1,0,0,1,4.2.421,6.219,6.219,0,0,1,2.509,1.34,6.035,6.035,0,0,1,1.608,2.292,8.068,8.068,0,0,1,.548,3.05,6.74,6.74,0,0,1-2.227,5.481Q293.1,125.043,288.693,125.041Zm-1.163-10.847H284.3v7.232h3.23a9.725,9.725,0,0,0,2.833-.354,3.327,3.327,0,0,0,1.737-1.163,3.478,3.478,0,0,0,.6-2.115,3.584,3.584,0,0,0-.919-2.55Q290.744,114.193,287.531,114.194Z" transform="translate(-279.507 -110.19)"/>
      <path id="Tracé_66" data-name="Tracé 66" d="M298.849,134.258h-7.232a2.985,2.985,0,0,1-2.234-.7,3.153,3.153,0,0,1-.672-2.237V113.532a3.088,3.088,0,0,1,.689-2.251,3.039,3.039,0,0,1,2.218-.687h7.667a17.99,17.99,0,0,1,2.938.211,6.266,6.266,0,0,1,2.23.806,5.942,5.942,0,0,1,1.486,1.268,5.634,5.634,0,0,1,.983,1.694,5.715,5.715,0,0,1,.34,1.962,5.442,5.442,0,0,1-3.552,5.2q4.665,1.486,4.665,5.78a6.492,6.492,0,0,1-1.017,3.576,6.092,6.092,0,0,1-2.744,2.347,9.774,9.774,0,0,1-2.486.639A25.67,25.67,0,0,1,298.849,134.258Zm-5.342-20.064v6.117h4.39a8.858,8.858,0,0,0,2.768-.337,2.665,2.665,0,0,0,1.5-1.292,2.925,2.925,0,0,0,.4-1.519,2.355,2.355,0,0,0-1.275-2.38,9.744,9.744,0,0,0-3.89-.589Zm4.988,9.557h-4.988v6.907h5.148q4.859,0,4.859-3.5a2.855,2.855,0,0,0-1.258-2.6A7.052,7.052,0,0,0,298.5,123.752Z" transform="translate(-266.692 -110.19)"/>
      <path id="Tracé_67" data-name="Tracé 67" d="M300.764,114.817a2.328,2.328,0,0,1-1.574-.565,2.2,2.2,0,0,1,.014-3.141,2.263,2.263,0,0,1,1.56-.605,2.313,2.313,0,0,1,1.517.55,1.958,1.958,0,0,1,.66,1.6,2,2,0,0,1-.646,1.588A2.212,2.212,0,0,1,300.764,114.817Zm2.177,4.553v12.737a2.839,2.839,0,0,1-.629,2,2.082,2.082,0,0,1-1.6.677,1.986,1.986,0,0,1-1.572-.694,2.929,2.929,0,0,1-.605-1.986V119.5a2.82,2.82,0,0,1,.605-1.969,2.023,2.023,0,0,1,1.572-.663,2.1,2.1,0,0,1,1.6.663A2.554,2.554,0,0,1,302.941,119.369Z" transform="translate(-253.012 -110.312)"/>
      <path id="Tracé_68" data-name="Tracé 68" d="M306.675,124.725V128.4a2.845,2.845,0,0,1-.629,2.009,2.1,2.1,0,0,1-1.6.67,2.015,2.015,0,0,1-1.565-.677,2.894,2.894,0,0,1-.612-2V116.136q0-2.971,2.146-2.971a1.793,1.793,0,0,1,1.581.694,3.813,3.813,0,0,1,.534,2.05,7.654,7.654,0,0,1,1.622-2.05,3.355,3.355,0,0,1,2.22-.694,5.7,5.7,0,0,1,2.7.694,2.073,2.073,0,0,1,1.306,1.842,1.758,1.758,0,0,1-.555,1.33,1.738,1.738,0,0,1-1.2.524,5.386,5.386,0,0,1-1.17-.3,5.455,5.455,0,0,0-1.639-.3,2.41,2.41,0,0,0-1.584.507,3.275,3.275,0,0,0-.952,1.51,10.624,10.624,0,0,0-.466,2.38C306.715,122.277,306.675,123.4,306.675,124.725Z" transform="translate(-247.817 -106.61)"/>
      <path id="Tracé_69" data-name="Tracé 69" d="M320.642,132.381v-.438a11.193,11.193,0,0,1-1.749,1.655,6.644,6.644,0,0,1-1.873.969,7.056,7.056,0,0,1-2.2.33,6.486,6.486,0,0,1-2.931-.67,6.816,6.816,0,0,1-2.332-1.914,8.648,8.648,0,0,1-1.493-2.921,12.453,12.453,0,0,1-.51-3.631,9.466,9.466,0,0,1,2.019-6.44,6.7,6.7,0,0,1,5.311-2.309,7.146,7.146,0,0,1,3.213.653,8.935,8.935,0,0,1,2.548,2.009v-6.5a3.286,3.286,0,0,1,.543-2.05,1.833,1.833,0,0,1,1.541-.7,1.912,1.912,0,0,1,1.543.639,2.852,2.852,0,0,1,.541,1.88v19.437a2.691,2.691,0,0,1-.584,1.887,1.949,1.949,0,0,1-1.5.629,1.922,1.922,0,0,1-1.493-.653A2.681,2.681,0,0,1,320.642,132.381Zm-8.667-6.476a7.532,7.532,0,0,0,.557,3.053,4.235,4.235,0,0,0,1.526,1.9,3.757,3.757,0,0,0,2.112.636,3.9,3.9,0,0,0,2.124-.605,4.148,4.148,0,0,0,1.533-1.856,7.525,7.525,0,0,0,.572-3.124,7.33,7.33,0,0,0-.572-3.026,4.545,4.545,0,0,0-1.55-1.935,3.694,3.694,0,0,0-2.139-.67,3.594,3.594,0,0,0-2.163.687,4.385,4.385,0,0,0-1.476,1.966A7.8,7.8,0,0,0,311.974,125.905Z" transform="translate(-240.462 -110.425)"/>
    </g>
  </g>
</svg>
